<mxfile host="app.diagrams.net" modified="2023-10-20T16:55:45.431Z" agent="Mozilla/5.0 (Macintosh; Intel Mac OS X 10_15_7) AppleWebKit/605.1.15 (KHTML, like Gecko) Version/15.3 Safari/605.1.15" version="21.8.1" etag="X9_OQ38S4Sv2V4RhKsJ6" type="github">
  <diagram name="Page-1" id="4bMjsid2UtYStN-u2KiD">
    <mxGraphModel>
      <root>
        <mxCell id="0" />
        <mxCell id="1" parent="0" />
      </root>
    </mxGraphModel>
  </diagram>
</mxfile>
